<svg width="237" height="180" viewBox="0 0 237 180" fill="none" xmlns="http://www.w3.org/2000/svg">
<path d="M236.214 158.665H0V158.783H236.214V158.665Z" fill="#E0E0E0"/>
<path d="M179.206 163.021H162.955V163.139H179.206V163.021Z" fill="#E0E0E0"/>
<path d="M198.326 162.686H189.179V162.804H198.326V162.686Z" fill="#E0E0E0"/>
<path d="M116.85 162.964H104.719V163.082H116.85V162.964Z" fill="#E0E0E0"/>
<path d="M125.614 164.641H117.328V164.759H125.614V164.641Z" fill="#E0E0E0"/>
<path d="M68.3462 161.769H43.3123V161.887H68.3462V161.769Z" fill="#E0E0E0"/>
<path d="M205.048 15.4579H133.853V76.6657H205.048V15.4579Z" fill="#E0E0E0"/>
<path d="M206.631 15.4579H135.436V76.6657H206.631V15.4579Z" fill="#F0F0F0"/>
<path d="M203.792 73.7934V18.3303L138.275 18.3303V73.7934H203.792Z" fill="#FAFAFA"/>
<path d="M182.853 73.7934V18.3303H178.573V73.7934H182.853Z" fill="#E0E0E0"/>
<path d="M160.338 73.7934V18.3303H156.057V73.7934H160.338Z" fill="#E0E0E0"/>
<path d="M184.361 75.6122V16.1902H180.08V75.6122H184.361Z" fill="#F0F0F0"/>
<path d="M161.84 75.6169V16.1949H157.56V75.6169H161.84Z" fill="#F0F0F0"/>
<path d="M203.792 73.7886V18.3255H202.596V73.7886H203.792Z" fill="#E0E0E0"/>
<path d="M83.7805 63.7968C83.7805 63.7968 75.1161 48.8728 87.1394 36.9723C87.1394 36.9723 90.2763 39.0179 90.2291 41.7674C90.1819 44.517 86.8654 45.2114 87.5788 47.5074C88.2921 49.8035 91.4149 52.0475 89.3646 53.9467C87.3142 55.8458 89.6953 57.5277 89.5583 59.852C89.4213 62.1764 83.7805 63.7968 83.7805 63.7968Z" fill="#E0E0E0"/>
<path d="M85.141 66.2392C85.141 66.2392 88.6559 49.3357 73.5004 41.843C73.5004 41.843 71.1666 44.7721 72.0831 47.3657C72.9996 49.9593 76.3586 49.572 76.4058 51.9766C76.4531 54.3813 74.1996 57.4993 76.7413 58.652C79.2829 59.8048 77.5586 62.1574 78.4231 64.3212C79.2876 66.4849 85.141 66.2392 85.141 66.2392Z" fill="#E6E6E6"/>
<path d="M77.4263 61.9449C77.4263 61.9449 77.5775 76.5382 83.412 76.5382C89.2465 76.5382 89.3929 61.9449 89.3929 61.9449H77.4263Z" fill="#F0F0F0"/>
<path d="M42.3721 71.0486C42.3721 71.0486 42.6981 76.5382 55.156 76.5382C67.614 76.5382 67.9447 71.0486 67.9447 71.0486H42.3721Z" fill="#E6E6E6"/>
<path d="M173.712 104.147H167.136C166.316 104.147 165.652 104.811 165.652 105.63V116.506C165.652 117.325 166.316 117.989 167.136 117.989H173.712C174.531 117.989 175.195 117.325 175.195 116.506V105.63C175.195 104.811 174.531 104.147 173.712 104.147Z" fill="#F0F0F0"/>
<path d="M191.154 108.673H186.727C186.177 108.673 185.731 109.119 185.731 109.67V116.992C185.731 117.543 186.177 117.989 186.727 117.989H191.154C191.705 117.989 192.151 117.543 192.151 116.992V109.67C192.151 109.119 191.705 108.673 191.154 108.673Z" fill="#E6E6E6"/>
<path d="M191.815 107.77H186.066C185.881 107.77 185.731 107.921 185.731 108.106V108.484C185.731 108.669 185.881 108.819 186.066 108.819H191.815C192.001 108.819 192.151 108.669 192.151 108.484V108.106C192.151 107.921 192.001 107.77 191.815 107.77Z" fill="#F0F0F0"/>
<path d="M150.431 110.288C150.431 110.288 150.667 117.989 159.686 117.989C168.704 117.989 168.945 110.288 168.945 110.288H150.431Z" fill="#E6E6E6"/>
<path d="M128 100.117H141.648V97.4242H128V100.117Z" fill="#E0E0E0"/>
<path d="M209.503 97.429H141.648V100.122H209.503V97.429Z" fill="#F0F0F0"/>
<path d="M128 120.682H141.648V117.989H128V120.682Z" fill="#E0E0E0"/>
<path d="M209.503 117.989H141.648V120.682H209.503V117.989Z" fill="#F0F0F0"/>
<path d="M132.918 100.117H130.4V158.66H132.918V100.117Z" fill="#E0E0E0"/>
<path d="M144.166 100.117H141.648V158.66H144.166V100.117Z" fill="#F0F0F0"/>
<path d="M200.773 100.117H198.255V158.66H200.773V100.117Z" fill="#E0E0E0"/>
<path d="M209.503 100.117H206.985V158.66H209.503V100.117Z" fill="#F0F0F0"/>
<path d="M42.3721 79.9633H29.4653V155.122H42.3721V79.9633Z" fill="#E6E6E6"/>
<path d="M95.5912 155.117H31.9456V158.665H95.5912V155.117Z" fill="#E6E6E6"/>
<path d="M42.3721 155.117H98.0667L98.0667 79.9586H42.3721L42.3721 155.117Z" fill="#F0F0F0"/>
<path d="M47.446 126.72H92.9928V108.361H47.446V126.72Z" fill="#E6E6E6"/>
<path d="M47.446 148.423H92.9928V130.064H47.446V148.423Z" fill="#E6E6E6"/>
<path d="M75.3334 110.374H65.1054C64.7725 110.372 64.4535 110.239 64.2181 110.004C63.9827 109.769 63.8499 109.45 63.8487 109.117C63.8487 108.783 63.9809 108.463 64.2165 108.227C64.452 107.99 64.7716 107.857 65.1054 107.855H75.3334C75.6672 107.857 75.9868 107.99 76.2223 108.227C76.4578 108.463 76.5901 108.783 76.5901 109.117C76.5888 109.45 76.4561 109.769 76.2207 110.004C75.9853 110.239 75.6663 110.372 75.3334 110.374Z" fill="#F0F0F0"/>
<path d="M47.446 105.011H92.9928V86.6529H47.446V105.011Z" fill="#E6E6E6"/>
<path d="M75.3334 88.6701H65.1054C64.7716 88.6689 64.452 88.5354 64.2165 88.299C63.9809 88.0626 63.8487 87.7425 63.8487 87.4088C63.8499 87.0759 63.9827 86.7569 64.2181 86.5215C64.4535 86.2861 64.7725 86.1533 65.1054 86.1521H75.3334C75.6663 86.1533 75.9853 86.2861 76.2207 86.5215C76.4561 86.7569 76.5888 87.0759 76.5901 87.4088C76.5901 87.7425 76.4578 88.0626 76.2223 88.299C75.9868 88.5354 75.6672 88.6689 75.3334 88.6701Z" fill="#F0F0F0"/>
<path d="M75.3334 132.077H65.1054C64.7725 132.076 64.4535 131.943 64.2181 131.707C63.9827 131.472 63.8499 131.153 63.8487 130.82C63.8487 130.486 63.9809 130.166 64.2165 129.93C64.452 129.694 64.7716 129.56 65.1054 129.559H75.3334C75.6672 129.56 75.9868 129.694 76.2223 129.93C76.4578 130.166 76.5901 130.486 76.5901 130.82C76.5888 131.153 76.4561 131.472 76.2207 131.707C75.9853 131.943 75.6663 132.076 75.3334 132.077Z" fill="#F0F0F0"/>
<path d="M99.7864 76.5382H42.3721V79.9633H99.7864V76.5382Z" fill="#E6E6E6"/>
<path d="M27.6607 79.9586H42.3721V76.5335H27.6607V79.9586Z" fill="#E0E0E0"/>
<path d="M56.7576 18.3303H35.8762V41.2619H56.7576V18.3303Z" fill="#E6E6E6"/>
<path d="M59.0205 18.3303H37.4494V41.2619H59.0205V18.3303Z" fill="#F0F0F0"/>
<path d="M57.2111 39.4526V20.1349H39.2541V39.4526H57.2111Z" fill="#FAFAFA"/>
<path d="M52.86 34.7708V24.8167H43.6099V34.7708H52.86Z" fill="#F0F0F0"/>
<path d="M78.7728 11.5604H62.937V28.5725H78.7728V11.5604Z" fill="#E6E6E6"/>
<path d="M80.4546 11.5604H64.4534V28.5725H80.4546V11.5604Z" fill="#F0F0F0"/>
<path d="M79.1129 27.2308V12.9021H65.7952V27.2308H79.1129Z" fill="#FAFAFA"/>
<path d="M72.4516 16.4406L68.8092 22.7522H76.0941L72.4516 16.4406Z" fill="#F0F0F0"/>
<path d="M118.107 180C168.696 180 209.706 177.606 209.706 174.652C209.706 171.699 168.696 169.304 118.107 169.304C67.5183 169.304 26.5079 171.699 26.5079 174.652C26.5079 177.606 67.5183 180 118.107 180Z" fill="#F5F5F5"/>
<path d="M198.325 46.898H151.98C149.535 46.898 147.554 48.8799 147.554 51.3246V63.929C147.554 66.3738 149.535 68.3557 151.98 68.3557H198.325C200.77 68.3557 202.752 66.3738 202.752 63.929V51.3246C202.752 48.8799 200.77 46.898 198.325 46.898Z" fill="#00B4CC"/>
<path d="M189.132 50.5168H152.93C152.502 50.5168 152.155 50.8637 152.155 51.2916V52.1419C152.155 52.5698 152.502 52.9167 152.93 52.9167H189.132C189.56 52.9167 189.907 52.5698 189.907 52.1419V51.2916C189.907 50.8637 189.56 50.5168 189.132 50.5168Z" fill="#00B4CC"/>
<path d="M177.666 56.2993H152.93C152.502 56.2993 152.155 56.6462 152.155 57.0741V57.9245C152.155 58.3524 152.502 58.6993 152.93 58.6993H177.666C178.094 58.6993 178.441 58.3524 178.441 57.9245V57.0741C178.441 56.6462 178.094 56.2993 177.666 56.2993Z" fill="#00B4CC"/>
<path d="M171.033 62.0818H152.93C152.502 62.0818 152.155 62.4287 152.155 62.8566V63.707C152.155 64.1349 152.502 64.4818 152.93 64.4818H171.033C171.461 64.4818 171.808 64.1349 171.808 63.707V62.8566C171.808 62.4287 171.461 62.0818 171.033 62.0818Z" fill="#00B4CC"/>
<path d="M193.469 62.0818H175.365C174.937 62.0818 174.591 62.4287 174.591 62.8566V63.707C174.591 64.1349 174.937 64.4818 175.365 64.4818H193.469C193.897 64.4818 194.244 64.1349 194.244 63.707V62.8566C194.244 62.4287 193.897 62.0818 193.469 62.0818Z" fill="#00B4CC"/>
<g opacity="0.5">
<path d="M189.132 50.5168H152.93C152.502 50.5168 152.155 50.8637 152.155 51.2916V52.1419C152.155 52.5698 152.502 52.9167 152.93 52.9167H189.132C189.56 52.9167 189.907 52.5698 189.907 52.1419V51.2916C189.907 50.8637 189.56 50.5168 189.132 50.5168Z" fill="white"/>
<path d="M177.666 56.2993H152.93C152.502 56.2993 152.155 56.6462 152.155 57.0741V57.9245C152.155 58.3524 152.502 58.6993 152.93 58.6993H177.666C178.094 58.6993 178.441 58.3524 178.441 57.9245V57.0741C178.441 56.6462 178.094 56.2993 177.666 56.2993Z" fill="white"/>
<path d="M171.033 62.0818H152.93C152.502 62.0818 152.155 62.4287 152.155 62.8566V63.707C152.155 64.1349 152.502 64.4818 152.93 64.4818H171.033C171.461 64.4818 171.808 64.1349 171.808 63.707V62.8566C171.808 62.4287 171.461 62.0818 171.033 62.0818Z" fill="white"/>
<path d="M193.469 62.0818H175.365C174.938 62.0818 174.591 62.4287 174.591 62.8566V63.707C174.591 64.1349 174.938 64.4818 175.365 64.4818H193.469C193.897 64.4818 194.244 64.1349 194.244 63.707V62.8566C194.244 62.4287 193.897 62.0818 193.469 62.0818Z" fill="white"/>
</g>
<path d="M161.202 41.895H108.597C105.012 41.895 102.106 44.8012 102.106 48.3861V66.8675C102.106 70.4525 105.012 73.3587 108.597 73.3587H161.202C164.787 73.3587 167.693 70.4525 167.693 66.8675V48.3861C167.693 44.8012 164.787 41.895 161.202 41.895Z" fill="#00B4CC"/>
<path d="M163.063 47.2003H109.991C109.362 47.2003 108.852 47.7101 108.852 48.3389V49.5814C108.852 50.2102 109.362 50.7199 109.991 50.7199H163.063C163.692 50.7199 164.202 50.2102 164.202 49.5814V48.3389C164.202 47.7101 163.692 47.2003 163.063 47.2003Z" fill="#00B4CC"/>
<path d="M146.25 55.6804H109.991C109.362 55.6804 108.852 56.1902 108.852 56.819V58.0615C108.852 58.6903 109.362 59.2 109.991 59.2H146.25C146.878 59.2 147.388 58.6903 147.388 58.0615V56.819C147.388 56.1902 146.878 55.6804 146.25 55.6804Z" fill="#00B4CC"/>
<path d="M136.527 64.1605H109.991C109.362 64.1605 108.852 64.6703 108.852 65.2991V66.5416C108.852 67.1704 109.362 67.6801 109.991 67.6801H136.527C137.156 67.6801 137.666 67.1704 137.666 66.5416V65.2991C137.666 64.6703 137.156 64.1605 136.527 64.1605Z" fill="#00B4CC"/>
<path d="M164.996 64.1605H142.886C142.257 64.1605 141.747 64.6703 141.747 65.2991V66.5416C141.747 67.1704 142.257 67.6801 142.886 67.6801H164.996C165.624 67.6801 166.134 67.1704 166.134 66.5416V65.2991C166.134 64.6703 165.624 64.1605 164.996 64.1605Z" fill="#00B4CC"/>
<g opacity="0.5">
<path d="M163.063 47.2003H109.991C109.362 47.2003 108.852 47.7101 108.852 48.3389V49.5814C108.852 50.2102 109.362 50.7199 109.991 50.7199H163.063C163.692 50.7199 164.202 50.2102 164.202 49.5814V48.3389C164.202 47.7101 163.692 47.2003 163.063 47.2003Z" fill="white"/>
<path d="M146.25 55.6805H109.991C109.362 55.6805 108.852 56.1902 108.852 56.819V58.0615C108.852 58.6903 109.362 59.2001 109.991 59.2001H146.25C146.878 59.2001 147.388 58.6903 147.388 58.0615V56.819C147.388 56.1902 146.878 55.6805 146.25 55.6805Z" fill="white"/>
<path d="M136.527 64.1606H109.991C109.362 64.1606 108.852 64.6703 108.852 65.2991V66.5416C108.852 67.1704 109.362 67.6801 109.991 67.6801H136.527C137.156 67.6801 137.666 67.1704 137.666 66.5416V65.2991C137.666 64.6703 137.156 64.1606 136.527 64.1606Z" fill="white"/>
<path d="M164.996 64.1606H142.886C142.257 64.1606 141.747 64.6703 141.747 65.2991V66.5416C141.747 67.1704 142.257 67.6801 142.886 67.6801H164.996C165.624 67.6801 166.134 67.1704 166.134 66.5416V65.2991C166.134 64.6703 165.624 64.1606 164.996 64.1606Z" fill="white"/>
</g>
<path d="M128.496 79.0609H103.159C101.484 79.0609 100.126 80.4188 100.126 82.0939V120.049C100.126 121.724 101.484 123.082 103.159 123.082H128.496C130.171 123.082 131.529 121.724 131.529 120.049V82.0939C131.529 80.4188 130.171 79.0609 128.496 79.0609Z" fill="#00B4CC"/>
<path opacity="0.4" d="M128.496 79.0609H103.159C101.484 79.0609 100.126 80.4188 100.126 82.0939V120.049C100.126 121.724 101.484 123.082 103.159 123.082H128.496C130.171 123.082 131.529 121.724 131.529 120.049V82.0939C131.529 80.4188 130.171 79.0609 128.496 79.0609Z" fill="black"/>
<path d="M127.334 83.6529H104.317C104.009 83.6529 103.759 83.9025 103.759 84.2104V85.0466C103.759 85.3545 104.009 85.6041 104.317 85.6041H127.334C127.641 85.6041 127.891 85.3545 127.891 85.0466V84.2104C127.891 83.9025 127.641 83.6529 127.334 83.6529Z" fill="#FAFAFA"/>
<path d="M120.006 88.3489H104.317C104.009 88.3489 103.759 88.5985 103.759 88.9063V89.7425C103.759 90.0504 104.009 90.3 104.317 90.3H120.006C120.314 90.3 120.564 90.0504 120.564 89.7425V88.9063C120.564 88.5985 120.314 88.3489 120.006 88.3489Z" fill="#FAFAFA"/>
<path d="M127.334 93.0495H104.317C104.009 93.0495 103.759 93.2991 103.759 93.607V94.4432C103.759 94.7511 104.009 95.0007 104.317 95.0007H127.334C127.641 95.0007 127.891 94.7511 127.891 94.4432V93.607C127.891 93.2991 127.641 93.0495 127.334 93.0495Z" fill="#FAFAFA"/>
<path d="M112.873 97.7455H104.317C104.009 97.7455 103.759 97.9951 103.759 98.303V99.1391C103.759 99.447 104.009 99.6966 104.317 99.6966H112.873C113.18 99.6966 113.43 99.447 113.43 99.1391V98.303C113.43 97.9951 113.18 97.7455 112.873 97.7455Z" fill="#FAFAFA"/>
<path d="M124.844 97.7455H116.288C115.98 97.7455 115.731 97.9951 115.731 98.303V99.1391C115.731 99.447 115.98 99.6966 116.288 99.6966H124.844C125.152 99.6966 125.401 99.447 125.401 99.1391V98.303C125.401 97.9951 125.152 97.7455 124.844 97.7455Z" fill="#FAFAFA"/>
<path d="M127.334 102.446H104.317C104.009 102.446 103.759 102.696 103.759 103.004V103.84C103.759 104.148 104.009 104.397 104.317 104.397H127.334C127.641 104.397 127.891 104.148 127.891 103.84V103.004C127.891 102.696 127.641 102.446 127.334 102.446Z" fill="#FAFAFA"/>
<path d="M127.334 107.142H104.317C104.009 107.142 103.759 107.392 103.759 107.7V108.536C103.759 108.844 104.009 109.093 104.317 109.093H127.334C127.641 109.093 127.891 108.844 127.891 108.536V107.7C127.891 107.392 127.641 107.142 127.334 107.142Z" fill="#FAFAFA"/>
<path d="M123.252 111.843H104.317C104.009 111.843 103.759 112.092 103.759 112.4V113.236C103.759 113.544 104.009 113.794 104.317 113.794H123.252C123.56 113.794 123.809 113.544 123.809 113.236V112.4C123.809 112.092 123.56 111.843 123.252 111.843Z" fill="#FAFAFA"/>
<path d="M113.151 116.539H104.317C104.009 116.539 103.759 116.788 103.759 117.096V117.932C103.759 118.24 104.009 118.49 104.317 118.49H113.151C113.459 118.49 113.709 118.24 113.709 117.932V117.096C113.709 116.788 113.459 116.539 113.151 116.539Z" fill="#FAFAFA"/>
<path d="M135.351 78.7916H100.207L115.745 91.1551L139.569 100.131V83.001C139.567 81.8837 139.121 80.8131 138.33 80.0239C137.54 79.2348 136.468 78.7916 135.351 78.7916Z" fill="#00B4CC"/>
<path opacity="0.4" d="M135.351 78.7916H100.207L115.745 91.1551L139.569 100.131V83.001C139.567 81.8837 139.121 80.8131 138.33 80.0239C137.54 79.2348 136.468 78.7916 135.351 78.7916Z" fill="black"/>
<path d="M133.815 85.16H108.101C107.715 85.16 107.402 85.473 107.402 85.8592V87.1631C107.402 87.5492 107.715 87.8623 108.101 87.8623H133.815C134.201 87.8623 134.515 87.5492 134.515 87.1631V85.8592C134.515 85.473 134.201 85.16 133.815 85.16Z" fill="#FAFAFA"/>
<path d="M196.129 112.258V87.541C196.129 85.6468 194.593 84.1112 192.699 84.1112H149.779C147.884 84.1112 146.349 85.6468 146.349 87.541V112.258C146.349 114.153 147.884 115.688 149.779 115.688H192.699C194.593 115.688 196.129 114.153 196.129 112.258Z" fill="#00B4CC"/>
<path d="M203.966 104.426V79.7082C203.966 77.8139 202.431 76.2783 200.536 76.2783H157.616C155.722 76.2783 154.186 77.8139 154.186 79.7082V104.426C154.186 106.32 155.722 107.855 157.616 107.855H200.536C202.431 107.855 203.966 106.32 203.966 104.426Z" fill="#00B4CC"/>
<path opacity="0.5" d="M203.966 104.426V79.7082C203.966 77.8139 202.431 76.2783 200.536 76.2783H157.616C155.722 76.2783 154.186 77.8139 154.186 79.7082V104.426C154.186 106.32 155.722 107.855 157.616 107.855H200.536C202.431 107.855 203.966 106.32 203.966 104.426Z" fill="white"/>
<path d="M199.61 95.955V80.738C199.61 79.8953 198.927 79.2121 198.084 79.2121H184.058C183.215 79.2121 182.532 79.8953 182.532 80.738V95.955C182.532 96.7977 183.215 97.4809 184.058 97.4809H198.084C198.927 97.4809 199.61 96.7977 199.61 95.955Z" fill="#00B4CC"/>
<path opacity="0.7" d="M199.61 95.955V80.738C199.61 79.8953 198.927 79.2121 198.084 79.2121H184.058C183.215 79.2121 182.532 79.8953 182.532 80.738V95.955C182.532 96.7977 183.215 97.4809 184.058 97.4809H198.084C198.927 97.4809 199.61 96.7977 199.61 95.955Z" fill="white"/>
<path d="M179.858 103.315V91.6559C179.858 91.0088 179.334 90.4843 178.687 90.4843H167.939C167.292 90.4843 166.767 91.0088 166.767 91.6559V103.315C166.767 103.962 167.292 104.487 167.939 104.487H178.687C179.334 104.487 179.858 103.962 179.858 103.315Z" fill="#00B4CC"/>
<path opacity="0.3" d="M179.858 103.315V91.6559C179.858 91.0088 179.334 90.4843 178.687 90.4843H167.939C167.292 90.4843 166.767 91.0088 166.767 91.6559V103.315C166.767 103.962 167.292 104.487 167.939 104.487H178.687C179.334 104.487 179.858 103.962 179.858 103.315Z" fill="white"/>
<path d="M173.31 29.3898V23.0923C173.31 21.1668 171.749 19.6058 169.824 19.6058L54.4898 19.6058C52.5643 19.6058 51.0033 21.1668 51.0033 23.0923V29.3898C51.0033 31.3154 52.5643 32.8763 54.4898 32.8763L169.824 32.8763C171.749 32.8763 173.31 31.3154 173.31 29.3898Z" fill="#00B4CC"/>
<path opacity="0.5" d="M173.31 29.3898V23.0923C173.31 21.1668 171.749 19.6058 169.824 19.6058L54.4898 19.6058C52.5643 19.6058 51.0033 21.1668 51.0033 23.0923V29.3898C51.0033 31.3154 52.5643 32.8763 54.4898 32.8763L169.824 32.8763C171.749 32.8763 173.31 31.3154 173.31 29.3898Z" fill="white"/>
<path d="M151.489 35.0967V30.5283L118.301 30.5283V35.0967H151.489Z" fill="#00B4CC"/>
<path opacity="0.5" d="M151.489 35.0967V30.5283L118.301 30.5283V35.0967H151.489Z" fill="white"/>
<path d="M185.211 9.784V3.48652C185.211 1.56097 183.65 0 181.724 0L66.3903 0C64.4648 0 62.9038 1.56097 62.9038 3.48652V9.784C62.9038 11.7096 64.4648 13.2705 66.3903 13.2705L181.724 13.2705C183.65 13.2705 185.211 11.7096 185.211 9.784Z" fill="#00B4CC"/>
<path d="M61.5857 69.7824C61.17 70.7273 60.7117 71.7477 60.3102 72.7446C59.9086 73.7414 59.4929 74.7666 59.1291 75.787C58.3827 77.7763 57.7842 79.818 57.3386 81.8955L57.2016 82.6514L57.1543 82.9348C57.1543 83.0152 57.1543 83.1191 57.126 83.2136C57.108 83.6736 57.1175 84.1342 57.1543 84.5931C57.2441 85.5899 57.4047 86.6576 57.6268 87.7253C58.0236 89.8654 58.5291 92.0716 59.0441 94.2448L56.6205 95.1896C55.4907 93.1302 54.5286 90.9832 53.7434 88.7693C53.3297 87.6171 52.9951 86.438 52.7419 85.2403C52.6 84.5776 52.5115 83.9046 52.4773 83.2277C52.4773 83.0388 52.4773 82.8593 52.4773 82.6561C52.4773 82.453 52.4773 82.2262 52.5104 82.0939L52.6048 81.1491C52.746 79.9322 52.9622 78.7252 53.2521 77.535C53.5166 76.3539 53.8568 75.2059 54.1969 74.0721C54.5371 72.9383 54.9623 71.8233 55.4111 70.7273C55.6331 70.1793 55.8835 69.636 56.1008 69.0927C56.3181 68.5494 56.5732 68.0297 56.8756 67.4486L61.5857 69.7824Z" fill="#E4897B"/>
<path d="M58.9165 93.607L60.759 95.4069L56.7386 97.2967C56.7386 97.2967 55.7654 95.5912 56.441 94.0511L58.9165 93.607Z" fill="#E4897B"/>
<path d="M62.2471 98.0856L58.8504 99.4746L56.7433 97.2778L60.759 95.407L62.2471 98.0856Z" fill="#E4897B"/>
<path opacity="0.4" d="M131.056 96.1487C124.372 95.3981 118.06 92.6826 112.919 88.3454C107.777 84.0082 104.037 78.244 102.172 71.7815C100.306 65.319 100.398 58.4485 102.436 52.0383C104.475 45.6282 108.368 39.9663 113.624 35.7685C118.879 31.5706 125.262 29.0252 131.964 28.4542C138.666 27.8831 145.387 29.3119 151.277 32.56C157.167 35.8082 161.962 40.7297 165.056 46.7026C168.149 52.6754 169.403 59.4314 168.657 66.1164C168.162 70.5579 166.796 74.8582 164.638 78.7716C162.48 82.6851 159.572 86.1349 156.08 88.924C152.588 91.713 148.581 93.7866 144.287 95.0263C139.993 96.2659 135.498 96.6473 131.056 96.1487Z" fill="#FAFAFA"/>
<path opacity="0.4" d="M155.802 35.5455L104.071 76.8783C103.854 76.4059 103.641 75.9334 103.443 75.461C102.146 72.3762 101.316 69.1152 100.982 65.7857L145.664 30.0843C149.332 31.3079 152.762 33.1555 155.802 35.5455Z" fill="#FAFAFA"/>
<path opacity="0.4" d="M167.74 53.6537L119.104 92.511C114.483 90.1023 110.479 86.6624 107.402 82.4577L160.508 40.0242C163.931 43.9533 166.405 48.6165 167.74 53.6537Z" fill="#FAFAFA"/>
<path d="M96.5596 49.3452L96.1108 49.194C96.8881 46.9004 97.865 44.6793 99.0304 42.5564L99.4414 42.7831C98.2914 44.8823 97.3271 47.078 96.5596 49.3452ZM102.295 38.3187L101.912 38.04C105.795 32.7903 110.876 28.5448 116.732 25.6576L116.945 26.0828C111.155 28.9402 106.132 33.1403 102.295 38.3329V38.3187ZM154.068 26.73C152.525 25.902 150.927 25.1776 149.287 24.5616L149.457 24.1175C151.113 24.7479 152.726 25.4865 154.286 26.3285L154.068 26.73Z" fill="#00B4CC"/>
<path opacity="0.3" d="M96.5596 49.3452L96.1108 49.194C96.8881 46.9004 97.865 44.6793 99.0304 42.5564L99.4414 42.7831C98.2914 44.8823 97.3271 47.078 96.5596 49.3452ZM102.295 38.3187L101.912 38.04C105.795 32.7903 110.876 28.5448 116.732 25.6576L116.945 26.0828C111.155 28.9402 106.132 33.1403 102.295 38.3329V38.3187ZM154.068 26.73C152.525 25.902 150.927 25.1776 149.287 24.5616L149.457 24.1175C151.113 24.7479 152.726 25.4865 154.286 26.3285L154.068 26.73Z" fill="black"/>
<path d="M170.013 44.9705C165.638 35.8976 157.94 28.8561 148.514 25.3057C139.088 21.7552 128.658 21.9682 119.384 25.9004C110.111 29.8326 102.707 37.1824 98.7064 46.4263C94.7059 55.6701 94.4159 66.0989 97.8966 75.5508C94.7407 76.6563 91.6227 77.8421 88.5236 79.0656C84.0544 80.8388 79.6262 82.6907 75.2389 84.6214C70.8548 86.5631 66.4895 88.5426 62.1668 90.6118C59.9983 91.6275 57.8582 92.6999 55.6992 93.7393C54.5761 94.2219 53.5585 94.9201 52.704 95.7943C52.2417 96.2785 51.8345 96.8124 51.4899 97.3864C51.0695 98.0653 50.7511 98.8023 50.5451 99.5738C50.1896 100.964 50.3433 102.436 50.9784 103.722C51.6136 105.009 52.6882 106.026 54.008 106.589C54.7408 106.897 55.5141 107.097 56.304 107.185C56.9711 107.26 57.6446 107.26 58.3118 107.185C59.5241 107.037 60.6959 106.654 61.7605 106.055C63.9006 104.974 66.0549 103.93 68.1808 102.819C72.4327 100.651 76.6845 98.388 80.8844 96.092C85.0843 93.796 89.2889 91.3913 93.3896 88.9252C96.2242 87.2103 99.0871 85.4576 101.893 83.6246C107.282 92.1314 115.737 98.2391 125.506 100.682C135.275 103.125 145.61 101.716 154.368 96.7463C163.127 91.777 169.638 83.6287 172.552 73.9897C175.466 64.3506 174.56 53.9599 170.022 44.9705H170.013ZM148.536 90.1016C143.046 92.8116 136.875 93.8327 130.805 93.036C124.734 92.2392 119.036 89.6603 114.431 85.6253C109.826 81.5903 106.521 76.2804 104.934 70.3671C103.346 64.4538 103.548 58.2026 105.513 52.4039C107.479 46.6053 111.119 41.5195 115.975 37.7898C120.83 34.0601 126.683 31.8539 132.792 31.4501C138.901 31.0464 144.993 32.4632 150.297 35.5215C155.601 38.5798 159.88 43.1422 162.591 48.6318C164.392 52.2775 165.456 56.2422 165.724 60.2995C165.993 64.3567 165.459 68.4271 164.154 72.278C162.849 76.129 160.798 79.6851 158.118 82.7433C155.438 85.8015 152.182 88.3019 148.536 90.1016Z" fill="#00B4CC"/>
<path opacity="0.3" d="M170.013 44.9705C165.638 35.8976 157.94 28.8561 148.514 25.3057C139.088 21.7552 128.658 21.9682 119.384 25.9004C110.111 29.8326 102.707 37.1824 98.7064 46.4263C94.7059 55.6701 94.4159 66.0989 97.8966 75.5508C94.7407 76.6563 91.6227 77.8421 88.5236 79.0656C84.0544 80.8388 79.6262 82.6907 75.2389 84.6214C70.8548 86.5631 66.4895 88.5426 62.1668 90.6118C59.9983 91.6275 57.8582 92.6999 55.6992 93.7393C54.5761 94.2219 53.5585 94.9201 52.704 95.7943C52.2417 96.2785 51.8345 96.8124 51.4899 97.3864C51.0695 98.0653 50.7511 98.8023 50.5451 99.5738C50.1896 100.964 50.3433 102.436 50.9784 103.722C51.6136 105.009 52.6882 106.026 54.008 106.589C54.7408 106.897 55.5141 107.097 56.304 107.185C56.9711 107.26 57.6446 107.26 58.3118 107.185C59.5241 107.037 60.6959 106.654 61.7605 106.055C63.9006 104.974 66.0549 103.93 68.1808 102.819C72.4327 100.651 76.6845 98.388 80.8844 96.092C85.0843 93.796 89.2889 91.3913 93.3896 88.9252C96.2242 87.2103 99.0871 85.4576 101.893 83.6246C107.282 92.1314 115.737 98.2391 125.506 100.682C135.275 103.125 145.61 101.716 154.368 96.7463C163.127 91.777 169.638 83.6287 172.552 73.9897C175.466 64.3506 174.56 53.9599 170.022 44.9705H170.013ZM148.536 90.1016C143.046 92.8116 136.875 93.8327 130.805 93.036C124.734 92.2392 119.036 89.6603 114.431 85.6253C109.826 81.5903 106.521 76.2804 104.934 70.3671C103.346 64.4538 103.548 58.2026 105.513 52.4039C107.479 46.6053 111.119 41.5195 115.975 37.7898C120.83 34.0601 126.683 31.8539 132.792 31.4501C138.901 31.0464 144.993 32.4632 150.297 35.5215C155.601 38.5798 159.88 43.1422 162.591 48.6318C164.392 52.2775 165.456 56.2422 165.724 60.2995C165.993 64.3567 165.459 68.4271 164.154 72.278C162.849 76.129 160.798 79.6851 158.118 82.7433C155.438 85.8015 152.182 88.3019 148.536 90.1016Z" fill="black"/>
<path d="M74.6437 52.912C74.6437 53.1907 74.7901 53.4175 74.9744 53.4175C75.1586 53.4175 75.3051 53.1907 75.3051 52.912C75.3051 52.6333 75.1586 52.4065 74.9744 52.4065C74.7901 52.4065 74.6437 52.6522 74.6437 52.912Z" fill="#263238"/>
<path d="M74.7759 53.4175C75.1103 54.2731 75.5602 55.079 76.1129 55.8127C75.9218 55.9494 75.7031 56.0427 75.4721 56.0859C75.2412 56.1292 75.0036 56.1214 74.7759 56.0631V53.4175Z" fill="#DE5753"/>
<path d="M73.6658 51.3577C73.6394 51.3577 73.6134 51.3518 73.5897 51.3403C73.566 51.3289 73.5451 51.3122 73.5288 51.2916C73.5041 51.2555 73.4943 51.2114 73.5014 51.1683C73.5084 51.1252 73.5317 51.0864 73.5666 51.0601C73.7746 50.9023 74.0177 50.7971 74.2752 50.7535C74.5327 50.7099 74.7968 50.7292 75.0453 50.8097C75.0676 50.8158 75.0884 50.8265 75.1063 50.8411C75.1242 50.8557 75.1389 50.8739 75.1493 50.8945C75.1598 50.9151 75.1658 50.9377 75.1669 50.9608C75.1681 50.9839 75.1644 51.007 75.1561 51.0286C75.1478 51.0502 75.1351 51.0698 75.1187 51.0861C75.1024 51.1025 75.0828 51.1152 75.0612 51.1235C75.0396 51.1318 75.0166 51.1355 74.9935 51.1344C74.9704 51.1332 74.9478 51.1272 74.9272 51.1168C74.7298 51.0563 74.5209 51.044 74.3178 51.081C74.1148 51.118 73.9236 51.2031 73.7603 51.3294C73.7323 51.3479 73.6994 51.3578 73.6658 51.3577Z" fill="#263238"/>
<path d="M65.1006 55.0143C65.573 57.5513 66.0927 62.2047 64.3163 63.9007C64.3163 63.9007 65.0108 66.4754 69.7304 66.4754C74.9271 66.4754 72.2059 63.9007 72.2059 63.9007C69.3713 63.2204 69.4516 61.1228 69.943 59.1481L65.1006 55.0143Z" fill="#E4897B"/>
<path d="M62.1952 65.2377C62.7574 64.3637 61.8125 62.2425 61.8125 62.2425C61.8125 62.2425 70.165 60.1402 73.5807 63.3668C74.2893 64.033 73.5051 65.0156 73.5051 65.0156L62.1952 65.2377Z" fill="#00B4CC"/>
<path opacity="0.1" d="M62.1952 65.2377C62.7574 64.3637 61.8125 62.2425 61.8125 62.2425C61.8125 62.2425 70.165 60.1402 73.5807 63.3668C74.2893 64.033 73.5051 65.0156 73.5051 65.0156L62.1952 65.2377Z" fill="black"/>
<path d="M48.3766 161.627C47.9373 161.627 47.2334 160.895 47.0255 160.621C47.0166 160.608 47.0118 160.592 47.0118 160.576C47.0118 160.56 47.0166 160.544 47.0255 160.531C47.0331 160.518 47.0442 160.507 47.0575 160.5C47.0708 160.492 47.0858 160.488 47.1011 160.489C47.153 160.489 48.3105 160.593 48.627 161.004C48.6614 161.047 48.686 161.097 48.6991 161.151C48.7121 161.205 48.7133 161.261 48.7026 161.315C48.6985 161.386 48.6727 161.453 48.6287 161.508C48.5847 161.563 48.5247 161.603 48.4569 161.623L48.3766 161.627ZM47.2806 160.682C47.6255 161.079 48.1782 161.528 48.4144 161.471C48.4144 161.471 48.5089 161.448 48.5373 161.297C48.5435 161.265 48.5425 161.232 48.5343 161.201C48.5261 161.17 48.511 161.141 48.49 161.117C48.14 160.852 47.7189 160.697 47.2806 160.673V160.682Z" fill="#00B4CC"/>
<path d="M47.3326 160.673C47.2478 160.682 47.1623 160.682 47.0775 160.673C47.0625 160.672 47.0483 160.666 47.0365 160.657C47.0247 160.648 47.016 160.635 47.0113 160.621C47.0047 160.608 47.0012 160.593 47.0012 160.578C47.0012 160.564 47.0047 160.549 47.0113 160.536C47.0444 160.508 47.7389 159.785 48.2633 159.785C48.326 159.783 48.3884 159.795 48.4462 159.82C48.504 159.844 48.556 159.881 48.5987 159.927C48.6457 159.966 48.6779 160.02 48.6899 160.08C48.702 160.14 48.6931 160.203 48.6648 160.257C48.5278 160.522 47.805 160.673 47.3326 160.673ZM47.2712 160.508C47.7436 160.508 48.4286 160.361 48.542 160.153C48.542 160.153 48.5751 160.092 48.4995 160.016C48.472 159.986 48.4383 159.963 48.4007 159.947C48.3632 159.932 48.3227 159.925 48.2822 159.927C47.8949 160.015 47.5429 160.218 47.2712 160.508Z" fill="#00B4CC"/>
<path d="M79.5522 172.351C79.1941 172.349 78.8369 172.316 78.4845 172.252C78.467 172.249 78.4512 172.239 78.44 172.226C78.4288 172.212 78.4228 172.194 78.4231 172.177C78.4204 172.16 78.4226 172.144 78.4293 172.128C78.436 172.113 78.447 172.101 78.4609 172.092C78.5129 172.063 79.7223 171.369 80.3034 171.529C80.3572 171.542 80.4081 171.565 80.4527 171.597C80.4974 171.63 80.535 171.671 80.5632 171.718C80.6002 171.771 80.6201 171.834 80.6201 171.898C80.6201 171.962 80.6002 172.025 80.5632 172.077C80.4262 172.29 79.9963 172.351 79.5522 172.351ZM78.7538 172.129C79.3963 172.224 80.275 172.219 80.4356 171.992C80.4593 171.964 80.4782 171.912 80.4356 171.813C80.3995 171.754 80.3419 171.712 80.275 171.695C79.9065 171.6 79.1743 171.912 78.7538 172.129Z" fill="#00B4CC"/>
<path d="M78.5034 172.257C78.488 172.261 78.4716 172.261 78.4562 172.257C78.4431 172.249 78.4329 172.236 78.427 172.222C78.421 172.208 78.4197 172.192 78.4231 172.177C78.4551 171.685 78.6439 171.216 78.9617 170.84C79.026 170.784 79.1014 170.743 79.1829 170.72C79.2645 170.696 79.3501 170.69 79.4341 170.703C79.6609 170.703 79.727 170.84 79.7412 170.929C79.8026 171.321 78.9759 172.073 78.5554 172.262L78.5034 172.257ZM79.3491 170.84C79.2451 170.839 79.1444 170.876 79.0656 170.944C78.7985 171.242 78.633 171.617 78.5932 172.016C79.0184 171.756 79.5853 171.17 79.538 170.934C79.538 170.934 79.538 170.854 79.3774 170.84H79.3491Z" fill="#00B4CC"/>
<path d="M74.6862 172.172H78.1585L78.5034 164.136H75.031L74.6862 172.172Z" fill="#E4897B"/>
<path d="M43.7657 158.377L46.6664 160.276L53.0725 154.867L50.1671 152.963L43.7657 158.377Z" fill="#E4897B"/>
<path d="M47.1436 160.097L44.1295 157.626C44.0762 157.582 44.0094 157.558 43.9405 157.558C43.8716 157.558 43.8048 157.582 43.7515 157.626L41.2666 159.577C41.2065 159.625 41.1581 159.685 41.1247 159.755C41.0914 159.824 41.0741 159.899 41.0741 159.976C41.0741 160.053 41.0914 160.129 41.1247 160.198C41.1581 160.267 41.2065 160.328 41.2666 160.375C42.3343 161.221 42.8964 161.58 44.224 162.667C45.0413 163.333 47.0585 165.374 48.1971 166.295C49.3356 167.216 50.3797 166.224 50.0018 165.747C48.3058 163.597 47.6396 161.76 47.4459 160.621C47.4125 160.415 47.3049 160.229 47.1436 160.097Z" fill="#263238"/>
<path d="M78.1349 171.77H74.3555C74.2865 171.771 74.2197 171.794 74.1657 171.837C74.1117 171.88 74.0737 171.939 74.0578 172.007L73.3728 175.091C73.3556 175.166 73.3556 175.244 73.3729 175.319C73.3902 175.393 73.4242 175.463 73.4725 175.523C73.5207 175.583 73.5819 175.63 73.6514 175.663C73.7209 175.695 73.7969 175.712 73.8736 175.71C75.2389 175.687 77.2137 175.606 78.9333 175.606C80.9411 175.606 82.6797 175.715 85.0324 175.715C86.4496 175.715 86.8559 174.274 86.2559 174.147C83.5442 173.551 81.3238 173.49 78.9805 172.04C78.7291 171.873 78.4363 171.78 78.1349 171.77Z" fill="#263238"/>
<path d="M57.4756 64.9353C54.4662 66.3526 52.7513 75.8484 52.7513 75.8484L60.107 78.7822C61.1837 76.1531 62.054 73.4442 62.7101 70.68C63.7211 66.3053 60.5558 63.4708 57.4756 64.9353Z" fill="#263238"/>
<path d="M61.3779 70.2879C59.559 72.1304 58.7275 75.7398 58.3638 78.0877L60.1259 78.7916C61.172 76.2372 62.0248 73.6079 62.677 70.9257C62.5211 69.9242 62.1337 69.5226 61.3779 70.2879Z" fill="#203048"/>
<path d="M77.5444 64.8692C77.5444 64.8692 81.2388 69.0454 77.7522 94.8684H59.1905C59.063 92.0338 60.8535 78.1208 58.1039 64.6944C60.1553 64.2966 62.2306 64.0346 64.3164 63.9101C66.9439 63.7541 69.5784 63.7541 72.2059 63.9101C74.0075 64.0914 75.7923 64.4121 77.5444 64.8692Z" fill="#263238"/>
<path d="M79.2404 74.8941L76.1129 69.5037C75.5092 72.0187 75.2627 74.6063 75.3807 77.1901C75.4657 79.042 77.1617 85.9017 78.6877 86.9032C79.0926 82.9134 79.2771 78.9043 79.2404 74.8941Z" fill="#203048"/>
<path d="M79.675 68.5588C80.1475 70.8548 80.6199 73.2075 81.1254 75.513C81.6309 77.8184 82.1553 80.1333 82.7647 82.3679C82.9206 82.9207 83.0671 83.4876 83.2371 84.0167L83.3647 84.423L83.4261 84.6261V84.6025C83.393 84.56 83.3553 84.5553 83.3836 84.6025C83.5778 84.8146 83.826 84.9697 84.1017 85.0513C84.5483 85.2175 85.0082 85.3455 85.4765 85.434C87.71 85.788 89.9716 85.9351 92.2322 85.8733L92.681 88.4434C92.0479 88.6465 91.4574 88.793 90.8338 88.9394C90.2102 89.0859 89.596 89.2087 88.9677 89.3032C87.6677 89.5196 86.3496 89.6082 85.0324 89.5677C84.3002 89.548 83.572 89.453 82.8592 89.2843C81.9529 89.086 81.1013 88.6909 80.3648 88.1268C79.8837 87.7384 79.4867 87.2562 79.1979 86.7095C79.1223 86.5678 79.0562 86.4072 78.9947 86.2702L78.9097 86.0481L78.7349 85.5757C78.494 84.9757 78.2955 84.3852 78.0782 83.7947C77.2798 81.4325 76.6137 79.0468 76.0279 76.6657C75.4421 74.2847 74.9366 71.9084 74.5161 69.4659L79.675 68.5588Z" fill="#E4897B"/>
<path d="M72.9098 67.4014C71.9319 70.5714 75.8956 80.0247 75.8956 80.0247L83.7899 78.0405C83.7899 78.0405 83.4875 73.1272 81.6876 69.2297C78.9758 63.3527 74.0815 63.5983 72.9098 67.4014Z" fill="#263238"/>
<path d="M92.166 85.8734L96.0967 85.7741L94.2069 89.8654C94.2069 89.8654 92.6054 90.078 91.2921 87.919L89.9078 86.2655L91.4999 85.9489C91.7191 85.9028 91.9421 85.8775 92.166 85.8734Z" fill="#E4897B"/>
<path d="M98.5769 86.5347L96.3282 89.9268L94.207 89.8654L96.0967 85.7741L98.5769 86.5347Z" fill="#E4897B"/>
<path d="M78.5034 164.136L78.3239 168.279H74.8516L75.0311 164.136H78.5034Z" fill="#CE6F64"/>
<path d="M50.1671 152.963L53.0726 154.867L49.7656 157.654L46.8649 155.755L50.1671 152.963Z" fill="#CE6F64"/>
<path d="M65.3179 52.312C65.5258 55.7466 65.4738 57.7733 67.2076 59.5355C69.8154 62.1952 74.0626 60.622 74.8846 57.1733C75.6263 54.0836 75.1633 48.9814 71.7996 47.6114C71.0574 47.3118 70.2513 47.2057 69.4569 47.303C68.6624 47.4003 67.9057 47.6979 67.2578 48.1678C66.6099 48.6377 66.092 49.2645 65.7526 49.9894C65.4133 50.7143 65.2637 51.5135 65.3179 52.312Z" fill="#E4897B"/>
<path d="M61.274 51.7073C62.1291 54.8395 64.1416 58.4489 66.7447 58.6803C69.9761 58.9638 71.4359 55.6237 71.8611 52.175C73.798 50.8475 72.7823 49.3877 74.724 49.2034C77.2184 48.9672 76.42 44.4036 73.1366 43.6713C73.1366 43.6713 74.2374 45.7264 71.9272 44.687C69.7302 43.6429 67.2894 43.2198 64.8691 43.4634C64.8691 43.4634 67.8171 44.9374 64.9353 45.5941C62.0535 46.2508 61.1936 48.0271 62.5212 49.0995C62.5212 49.1042 60.7118 49.6475 61.274 51.7073Z" fill="#263238"/>
<path d="M69.891 52.8837C69.9545 53.7374 70.2983 54.5462 70.869 55.1844C71.6248 56.0206 72.4138 55.5009 72.5461 54.4852C72.6689 53.5734 72.4185 52.038 71.4926 51.575C70.5666 51.112 69.8296 51.8538 69.891 52.8837Z" fill="#E4897B"/>
<path d="M71.1666 94.8684C71.1666 94.8684 74.5492 119.364 71.8847 129.181C67.6611 144.724 51.5135 157.843 51.5135 157.843L46.0381 154.253C46.0381 154.253 59.7905 143.174 61.4723 130.159C62.9841 118.476 59.1905 104.345 59.1905 94.8636L71.1666 94.8684Z" fill="#00B4CC"/>
<path opacity="0.1" d="M71.1666 94.8684C71.1666 94.8684 74.5492 119.364 71.8847 129.181C67.6611 144.724 51.5135 157.843 51.5135 157.843L46.0381 154.253C46.0381 154.253 59.7905 143.174 61.4723 130.159C62.9841 118.476 59.1905 104.345 59.1905 94.8636L71.1666 94.8684Z" fill="black"/>
<path d="M72.565 108.871C71.6645 107.84 70.6731 106.891 69.6028 106.037C70.1792 113.988 70.6516 125.765 70.1272 134.132C70.8323 132.528 71.4197 130.875 71.8847 129.186C73.1839 124.39 73.0469 116.109 72.565 108.871Z" fill="#00B4CC"/>
<path opacity="0.3" d="M72.565 108.871C71.6645 107.84 70.6731 106.891 69.6028 106.037C70.1792 113.988 70.6516 125.765 70.1272 134.132C70.8323 132.528 71.4197 130.875 71.8847 129.186C73.1839 124.39 73.0469 116.109 72.565 108.871Z" fill="black"/>
<path d="M53.7198 156.62C53.7434 156.62 51.5986 158.037 51.5986 158.037L45.6177 154.116L47.5074 152.552L53.7198 156.62Z" fill="#00B4CC"/>
<path opacity="0.3" d="M53.7198 156.62C53.7434 156.62 51.5986 158.037 51.5986 158.037L45.6177 154.116L47.5074 152.552L53.7198 156.62Z" fill="black"/>
<path d="M77.7522 94.8684C77.7522 94.8684 82.9773 117.025 83.3458 127.612C83.7615 139.48 79.6183 167.476 79.6183 167.476H73.7366C73.7366 167.476 73.0137 139.262 72.7539 128.453C72.4657 116.666 65.5494 94.8684 65.5494 94.8684H77.7522Z" fill="#00B4CC"/>
<path opacity="0.1" d="M77.7522 94.8684C77.7522 94.8684 82.9773 117.025 83.3458 127.612C83.7615 139.48 79.6183 167.476 79.6183 167.476H73.7366C73.7366 167.476 73.0137 139.262 72.7539 128.453C72.4657 116.666 65.5494 94.8684 65.5494 94.8684H77.7522Z" fill="black"/>
<path d="M80.7475 165.137C80.7758 165.137 80.4168 167.575 80.4168 167.575H73.2642L73.0705 165.397L80.7475 165.137Z" fill="#00B4CC"/>
<path opacity="0.3" d="M80.7475 165.137C80.7758 165.137 80.4168 167.575 80.4168 167.575H73.2642L73.0705 165.397L80.7475 165.137Z" fill="black"/>
<path d="M168.185 73.576C168.586 73.954 168.903 74.2752 169.233 74.6343C169.564 74.9933 169.876 75.3429 170.178 75.7067C170.792 76.4295 171.369 77.1901 171.926 77.9555C173.04 79.4907 174.03 81.1114 174.888 82.8026L175.063 83.1475C175.149 83.3144 175.22 83.4882 175.276 83.6671C175.39 84.0128 175.46 84.3716 175.484 84.7348C175.514 85.3754 175.426 86.0161 175.224 86.6245C174.879 87.6352 174.366 88.5807 173.707 89.4213C172.52 90.9459 171.12 92.2919 169.55 93.418L168.374 92.0669C168.926 91.4197 169.503 90.7252 170.018 90.0307C170.542 89.3579 171.015 88.6473 171.435 87.9048C171.827 87.257 172.117 86.5527 172.295 85.8167C172.356 85.5534 172.367 85.281 172.328 85.0135C172.311 84.9236 172.282 84.8362 172.243 84.7537C172.225 84.7175 172.205 84.6827 172.181 84.6498L172.03 84.3947C171.119 82.9091 170.13 81.4725 169.068 80.0908C168.544 79.3964 167.981 78.7302 167.415 78.0736C167.136 77.7429 166.848 77.4216 166.559 77.1004C166.271 76.7791 165.959 76.4579 165.709 76.2075L168.185 73.576Z" fill="#E4897B"/>
<path d="M168.827 91.6701L165.298 91.0937L167.145 94.1834C167.145 94.1834 169.418 94.1031 170.065 92.7661L168.827 91.6701Z" fill="#E4897B"/>
<path d="M162.69 92.5204L164.372 95.029L167.145 94.1834L165.298 91.0937L162.69 92.5204Z" fill="#E4897B"/>
<path d="M168.657 172.309C168.417 172.33 168.178 172.264 167.982 172.125C167.922 172.069 167.879 171.998 167.855 171.921C167.831 171.843 167.827 171.76 167.844 171.681C167.848 171.63 167.865 171.581 167.894 171.539C167.923 171.498 167.963 171.465 168.01 171.444C168.421 171.26 169.498 171.95 169.621 172.03C169.635 172.039 169.646 172.052 169.652 172.067C169.658 172.082 169.658 172.099 169.654 172.115C169.652 172.131 169.645 172.147 169.634 172.158C169.623 172.17 169.608 172.178 169.592 172.181C169.286 172.259 168.973 172.302 168.657 172.309ZM168.185 171.577C168.15 171.571 168.115 171.571 168.081 171.577C168.06 171.586 168.042 171.602 168.03 171.621C168.017 171.64 168.01 171.662 168.01 171.685C167.997 171.738 167.999 171.793 168.013 171.845C168.028 171.897 168.056 171.945 168.095 171.983C168.274 172.144 168.737 172.167 169.356 172.044C169.002 171.81 168.603 171.651 168.185 171.577Z" fill="#00B4CC"/>
<path d="M169.602 172.177H169.559C169.224 171.983 168.577 171.232 168.657 170.821C168.672 170.756 168.708 170.698 168.759 170.655C168.81 170.613 168.874 170.588 168.941 170.585C169.004 170.575 169.069 170.581 169.131 170.6C169.192 170.62 169.248 170.653 169.295 170.698C169.682 171.038 169.687 172.059 169.687 172.115C169.686 172.13 169.682 172.143 169.674 172.156C169.667 172.168 169.657 172.179 169.644 172.186L169.602 172.177ZM168.997 170.759H168.959C168.855 170.759 168.832 170.816 168.822 170.859C168.775 171.099 169.177 171.676 169.512 171.945C169.52 171.549 169.407 171.16 169.186 170.83C169.158 170.804 169.124 170.784 169.088 170.772C169.051 170.759 169.012 170.755 168.974 170.759H168.997Z" fill="#00B4CC"/>
<path d="M152.557 172.309C152.255 172.338 151.953 172.261 151.702 172.092C151.645 172.041 151.601 171.978 151.574 171.907C151.547 171.837 151.537 171.761 151.546 171.685C151.549 171.639 151.563 171.595 151.588 171.556C151.613 171.517 151.647 171.485 151.687 171.463C152.127 171.218 153.535 171.936 153.695 172.025C153.71 172.035 153.722 172.048 153.729 172.064C153.737 172.08 153.74 172.098 153.738 172.115C153.735 172.132 153.727 172.147 153.715 172.159C153.703 172.171 153.688 172.179 153.672 172.181C153.305 172.259 152.932 172.302 152.557 172.309ZM151.928 171.577C151.874 171.573 151.82 171.584 151.772 171.61C151.755 171.618 151.741 171.63 151.731 171.646C151.721 171.662 151.716 171.681 151.716 171.699C151.709 171.749 151.713 171.799 151.73 171.846C151.746 171.893 151.774 171.935 151.81 171.969C152.028 172.162 152.609 172.196 153.393 172.063C152.936 171.82 152.44 171.655 151.928 171.577Z" fill="#00B4CC"/>
<path d="M153.657 172.177H153.62C153.199 171.988 152.363 171.232 152.429 170.821C152.429 170.726 152.514 170.608 152.746 170.585C152.83 170.575 152.916 170.584 152.997 170.609C153.078 170.634 153.153 170.676 153.218 170.731C153.662 171.099 153.747 172.054 153.747 172.096C153.749 172.111 153.747 172.125 153.741 172.139C153.735 172.152 153.726 172.163 153.714 172.172C153.696 172.18 153.676 172.181 153.657 172.177ZM152.812 170.759H152.76C152.609 170.759 152.599 170.835 152.594 170.854C152.557 171.095 153.124 171.695 153.539 171.955C153.498 171.551 153.333 171.17 153.067 170.863C152.995 170.802 152.906 170.766 152.812 170.759Z" fill="#00B4CC"/>
<path d="M159.242 62.7149C159.105 64.8503 158.736 69.1872 160.375 70.3872C160.375 70.3872 160.078 72.5745 156.209 73.0847C151.957 73.6375 153.898 71.2375 153.898 71.2375C156.152 70.3777 155.864 68.6628 155.25 67.0943L159.242 62.7149Z" fill="#E4897B"/>
<path d="M150.44 58.9402C150.417 58.9403 150.394 58.9352 150.373 58.9254C150.351 58.9157 150.333 58.9014 150.317 58.8835C150.182 58.7233 150.011 58.597 149.819 58.515C149.626 58.4329 149.416 58.3973 149.207 58.4111C149.185 58.4151 149.162 58.4146 149.141 58.4096C149.119 58.4046 149.098 58.3952 149.08 58.3819C149.062 58.3686 149.047 58.3518 149.035 58.3325C149.024 58.3131 149.016 58.2917 149.013 58.2694C149.008 58.225 149.02 58.1802 149.048 58.1448C149.075 58.1095 149.116 58.0863 149.16 58.0804C149.427 58.0579 149.695 58.1002 149.942 58.2039C150.189 58.3076 150.407 58.4694 150.577 58.6757C150.598 58.7003 150.611 58.7302 150.615 58.762C150.619 58.7937 150.614 58.826 150.601 58.8551C150.588 58.8843 150.566 58.909 150.54 58.9266C150.513 58.9441 150.482 58.9538 150.45 58.9544L150.44 58.9402Z" fill="#263238"/>
<path d="M149.703 61.0331C149.536 61.7107 149.277 62.3623 148.933 62.97C149.091 63.0549 149.265 63.104 149.444 63.1138C149.623 63.1236 149.802 63.0939 149.968 63.0267L149.703 61.0331Z" fill="#DE5753"/>
<path d="M149.892 60.5134C149.93 60.7969 149.812 61.0425 149.628 61.0709C149.443 61.0992 149.259 60.8819 149.226 60.5984C149.193 60.315 149.306 60.0693 149.491 60.0457C149.675 60.0221 149.859 60.211 149.892 60.5134Z" fill="#263238"/>
<path d="M149.576 60.0504L148.872 59.9418C148.872 59.9418 149.287 60.4284 149.576 60.0504Z" fill="#263238"/>
<path d="M157.55 172.101H154.007L153.771 163.904H157.314L157.55 172.101Z" fill="#E4897B"/>
<path d="M173.636 172.101H170.093L168.955 163.904H172.498L173.636 172.101Z" fill="#E4897B"/>
<path d="M169.876 171.704H173.854C173.922 171.704 173.987 171.728 174.039 171.772C174.09 171.816 174.123 171.878 174.132 171.945L174.605 175.096C174.614 175.176 174.605 175.256 174.581 175.332C174.556 175.408 174.516 175.478 174.462 175.537C174.409 175.597 174.343 175.644 174.27 175.676C174.197 175.709 174.118 175.725 174.038 175.725C172.654 175.701 171.983 175.621 170.235 175.621C169.158 175.621 167.585 175.729 166.101 175.729C164.618 175.729 164.537 174.26 165.156 174.128C167.929 173.532 168.369 172.71 169.3 171.921C169.462 171.787 169.665 171.71 169.876 171.704Z" fill="#263238"/>
<path d="M153.889 171.704H157.862C157.93 171.703 157.997 171.727 158.049 171.772C158.101 171.816 158.135 171.878 158.145 171.945L158.618 175.096C158.627 175.176 158.618 175.256 158.594 175.332C158.569 175.408 158.529 175.478 158.475 175.537C158.422 175.597 158.356 175.644 158.283 175.676C158.21 175.709 158.131 175.725 158.051 175.725C156.667 175.701 155.996 175.621 154.248 175.621C153.171 175.621 150.941 175.729 149.458 175.729C147.974 175.729 147.894 174.26 148.513 174.128C151.286 173.532 152.377 172.71 153.313 171.921C153.475 171.787 153.678 171.71 153.889 171.704Z" fill="#263238"/>
<path d="M153.771 163.904L153.894 168.133H157.437L157.314 163.904H153.771Z" fill="#CE6F64"/>
<path d="M172.498 163.904H168.955L169.545 168.133H173.084L172.498 163.904Z" fill="#CE6F64"/>
<path d="M159.289 58.293C159.53 61.7984 159.705 63.2771 158.183 65.2944C155.892 68.3227 151.536 67.855 150.251 64.4913C149.094 61.463 148.895 56.2427 152.117 54.4096C152.826 54.0034 153.627 53.785 154.444 53.7752C155.261 53.7653 156.067 53.9644 156.785 54.3534C157.503 54.7424 158.11 55.3085 158.549 55.9979C158.987 56.6874 159.242 57.4774 159.289 58.293Z" fill="#E4897B"/>
<path d="M161.33 61.548C163.295 62.6441 164.755 59.9418 164.755 59.9418C164.755 59.9418 161.23 60.3244 161.547 58.2269C161.963 55.4443 159.969 52.0617 154.971 52.4963C154.692 52.5199 154.427 52.553 154.168 52.5955C153.644 52.3475 153.053 52.2834 152.488 52.4138C151.924 52.5441 151.421 52.8612 151.059 53.3136C149.642 53.4317 147.728 55.123 149.028 57.3576C149.119 57.1008 149.26 56.8648 149.443 56.6631C149.552 57.9717 150.695 60.0504 152.122 60.1874C152.429 61.9779 151.239 64.0519 151.65 65.9227C152.259 68.6203 156.809 69.2297 156.809 69.2297C156.652 68.8928 156.593 68.5185 156.64 68.1498C156.687 67.7812 156.837 67.4333 157.073 67.1463C160.163 68.5636 162.199 67.1794 162.199 67.1794C160.092 66.3951 160.73 64.9968 160.73 64.9968C161.457 65.3198 162.282 65.3482 163.03 65.0759C163.778 64.8037 164.391 64.252 164.741 63.5369C164.041 63.5702 163.346 63.4 162.741 63.0471C162.136 62.6942 161.645 62.1735 161.33 61.548Z" fill="#263238"/>
<path d="M153.355 60.726C153.363 61.0624 153.305 61.3972 153.183 61.711C153.062 62.0247 152.879 62.3114 152.646 62.5543C152.023 63.2015 151.257 62.748 151.05 61.9213C150.865 61.1748 150.969 59.9418 151.782 59.6016C151.961 59.5314 152.154 59.5069 152.345 59.5305C152.536 59.5541 152.717 59.6249 152.874 59.7367C153.03 59.8484 153.156 59.9974 153.24 60.1702C153.324 60.343 153.364 60.5341 153.355 60.726Z" fill="#E4897B"/>
<path d="M156.298 93.385C156.298 93.385 157.196 116.704 159.331 130.395C161.051 141.459 168.69 167.311 168.69 167.311H173.518C173.518 167.311 169.536 142.343 168.662 131.406C166.451 103.726 172.191 97.7833 166.772 92.0197L156.298 93.385Z" fill="#263238"/>
<path d="M160.333 100.76C160.333 100.76 158.15 100.382 156.875 104.539C157.347 112.414 158.155 122.865 159.331 130.395C159.591 132.072 159.988 134.094 160.475 136.31C159.553 123.006 160.333 100.76 160.333 100.76Z" fill="#161F33"/>
<path d="M152.533 93.8763C152.533 93.8763 148.555 119.676 148.787 130.471C149.028 141.7 153.142 167.32 153.142 167.32H157.928C157.928 167.32 157.172 142.366 157.593 131.34C158.065 119.317 162.974 92.5204 162.974 92.5204L152.533 93.8763Z" fill="#263238"/>
<path d="M174.218 167.537H167.797L167.296 165.383L174.17 165.43L174.218 167.537Z" fill="#00B4CC"/>
<path opacity="0.2" d="M174.218 167.537H167.797L167.296 165.383L174.17 165.43L174.218 167.537Z" fill="black"/>
<path d="M166.531 70.3919C168.378 70.5714 171.185 75.8201 171.185 75.8201L166.522 79.3964C166.522 79.3964 162.662 76.0091 163.12 74.1052C163.597 72.1257 164.76 70.2265 166.531 70.3919Z" fill="#00B4CC"/>
<path opacity="0.1" d="M166.531 70.3919C168.378 70.5714 171.185 75.8201 171.185 75.8201L166.522 79.3964C166.522 79.3964 162.662 76.0091 163.12 74.1052C163.597 72.1257 164.76 70.2265 166.531 70.3919Z" fill="black"/>
<path d="M165.137 72.6501C164.667 72.5232 164.179 72.469 163.692 72.4895C163.444 73.006 163.252 73.5477 163.12 74.1052C162.648 75.9949 166.522 79.3964 166.522 79.3964L166.867 79.1318L165.137 72.6501Z" fill="#00B4CC"/>
<path opacity="0.3" d="M165.137 72.6501C164.667 72.5232 164.179 72.469 163.692 72.4895C163.444 73.006 163.252 73.5477 163.12 74.1052C162.648 75.9949 166.522 79.3964 166.522 79.3964L166.867 79.1318L165.137 72.6501Z" fill="black"/>
<path d="M150.95 77.6909C149.604 81.0971 148.187 84.56 147.058 87.9757C146.982 88.193 146.921 88.4009 146.854 88.6135L146.694 89.1378C146.65 89.2923 146.65 89.4559 146.694 89.6103C146.961 90.2009 147.384 90.7074 147.917 91.0748C149.33 92.0883 150.869 92.9125 152.495 93.5267L152.07 95.2652C150.069 95.0014 148.135 94.3704 146.363 93.4039C145.273 92.8215 144.385 91.9221 143.817 90.8244C143.49 90.1229 143.377 89.341 143.491 88.5757C143.502 88.482 143.517 88.3889 143.538 88.2969L143.585 88.0985L143.666 87.7395C143.722 87.4985 143.779 87.267 143.84 87.0308C144.313 85.1411 144.918 83.3459 145.555 81.5648C146.193 79.7838 146.859 78.0263 147.61 76.2736L150.95 77.6909Z" fill="#E4897B"/>
<path d="M148.083 72.9099C148.083 72.9099 146.486 73.7178 152.533 93.8763L166.791 92.0149C165.789 86.2419 165.317 82.6656 166.531 70.3919C164.487 70.2455 162.434 70.2455 160.39 70.3919C158.213 70.5185 156.048 70.8027 153.913 71.2423C151.177 71.8517 148.083 72.9099 148.083 72.9099Z" fill="#00B4CC"/>
<path opacity="0.1" d="M148.083 72.9099C148.083 72.9099 146.486 73.7178 152.533 93.8763L166.791 92.0149C165.789 86.2419 165.317 82.6656 166.531 70.3919C164.487 70.2455 162.434 70.2455 160.39 70.3919C158.213 70.5185 156.048 70.8027 153.913 71.2423C151.177 71.8517 148.083 72.9099 148.083 72.9099Z" fill="black"/>
<path d="M166.895 91.1504L167.712 92.3362C167.774 92.4307 167.67 92.5441 167.509 92.5677L152.557 94.5235C152.429 94.5235 152.311 94.4905 152.292 94.4102L151.999 93.1488C151.976 93.0637 152.08 92.974 152.221 92.9551L166.659 91.0654C166.702 91.0584 166.746 91.0626 166.788 91.0775C166.829 91.0923 166.866 91.1174 166.895 91.1504Z" fill="#00B4CC"/>
<path opacity="0.2" d="M166.895 91.1504L167.712 92.3362C167.774 92.4307 167.67 92.5441 167.509 92.5677L152.557 94.5235C152.429 94.5235 152.311 94.4905 152.292 94.4102L151.999 93.1488C151.976 93.0637 152.08 92.974 152.221 92.9551L166.659 91.0654C166.702 91.0584 166.746 91.0626 166.788 91.0775C166.829 91.0923 166.866 91.1174 166.895 91.1504Z" fill="black"/>
<path d="M165.166 93.0165L165.553 92.9645C165.629 92.9645 165.681 92.9078 165.671 92.8606L165.274 91.226C165.259 91.1981 165.235 91.1762 165.206 91.1642C165.177 91.1521 165.144 91.1506 165.114 91.1598L164.726 91.2071C164.646 91.2071 164.594 91.2638 164.608 91.3157L165.005 92.9456C165.015 92.9976 165.09 93.0259 165.166 93.0165Z" fill="#263238"/>
<path d="M155.793 94.2259L156.18 94.1739C156.256 94.1739 156.313 94.1173 156.298 94.07L155.902 92.4354C155.886 92.4078 155.862 92.386 155.833 92.3732C155.804 92.3605 155.772 92.3574 155.741 92.3645L155.354 92.4165C155.278 92.4165 155.221 92.4732 155.235 92.5204L155.632 94.1551C155.642 94.2259 155.717 94.2543 155.793 94.2259Z" fill="#263238"/>
<path d="M148.749 79.7507C149.141 81.5743 149.694 83.8844 150.502 86.8088L150.676 79.3964L148.749 79.7507Z" fill="#00B4CC"/>
<path opacity="0.3" d="M148.749 79.7507C149.141 81.5743 149.694 83.8844 150.502 86.8088L150.676 79.3964L148.749 79.7507Z" fill="black"/>
<path d="M148.083 72.9099C146.311 73.6233 144.776 79.6846 144.776 79.6846L150.87 82.6514C150.87 82.6514 153.813 75.239 152.495 73.7934C151.177 72.3478 150.124 72.0926 148.083 72.9099Z" fill="#00B4CC"/>
<path opacity="0.1" d="M148.083 72.9099C146.311 73.6233 144.776 79.6846 144.776 79.6846L150.87 82.6514C150.87 82.6514 153.813 75.239 152.495 73.7934C151.177 72.3478 150.124 72.0926 148.083 72.9099Z" fill="black"/>
<path d="M158.745 167.537H152.325L151.824 165.383L158.972 165.43L158.745 167.537Z" fill="#00B4CC"/>
<path opacity="0.2" d="M158.745 167.537H152.325L151.824 165.383L158.972 165.43L158.745 167.537Z" fill="black"/>
<path d="M152.594 92.9409L152.08 92.7283C151.953 92.6768 151.815 92.6597 151.68 92.6788C151.544 92.6979 151.416 92.7524 151.309 92.8368C151.202 92.9212 151.118 93.0326 151.068 93.1595C151.017 93.2865 151.001 93.4246 151.021 93.5598L151.394 96.0211C151.412 96.1443 151.457 96.262 151.526 96.3657C151.595 96.4693 151.686 96.5564 151.793 96.6206C151.9 96.6848 152.019 96.7245 152.143 96.7368C152.267 96.7492 152.392 96.7338 152.509 96.692C152.697 96.6239 152.872 96.5267 153.029 96.4038C153.2 96.2621 153.335 96.0823 153.424 95.8788C153.512 95.6753 153.552 95.4538 153.539 95.2322L153.487 94.2117C153.478 93.936 153.389 93.6689 153.23 93.4431C153.072 93.2174 152.851 93.0428 152.594 92.9409Z" fill="#E4897B"/>
</svg>
