<svg width="32" height="32" viewBox="0 0 32 32" fill="none" xmlns="http://www.w3.org/2000/svg">
<path fill-rule="evenodd" clip-rule="evenodd" d="M10 6C7.79086 6 6 7.79086 6 10V11C6 13.2091 7.79086 15 10 15H11C13.2091 15 15 13.2091 15 11V10C15 7.79086 13.2091 6 11 6H10Z" fill="#00B4CC"/>
<path fill-rule="evenodd" clip-rule="evenodd" d="M21 6C18.7909 6 17 7.79086 17 10V11C17 13.2091 18.7909 15 21 15H22C24.2091 15 26 13.2091 26 11V10C26 7.79086 24.2091 6 22 6H21Z" fill="#00B4CC"/>
<path fill-rule="evenodd" clip-rule="evenodd" d="M10 17C7.79086 17 6 18.7909 6 21V22C6 24.2091 7.79086 26 10 26H11C13.2091 26 15 24.2091 15 22V21C15 18.7909 13.2091 17 11 17H10Z" fill="#00B4CC"/>
<path fill-rule="evenodd" clip-rule="evenodd" d="M21 17C18.7909 17 17 18.7909 17 21V22C17 24.2091 18.7909 26 21 26H22C24.2091 26 26 24.2091 26 22V21C26 18.7909 24.2091 17 22 17H21Z" fill="#00B4CC"/>
</svg>
