<svg width="32" height="32" viewBox="0 0 32 32" fill="none" xmlns="http://www.w3.org/2000/svg">
<path fill-rule="evenodd" clip-rule="evenodd" d="M24 14.8906L16 7.69058L8 14.8906L6.66207 13.404L14.6621 6.20399C15.4227 5.51944 16.5773 5.51945 17.3379 6.20399L25.3379 13.404C25.7594 13.7833 26 14.3236 26 14.8906V24.9999C26 26.1044 25.1046 26.9999 24 26.9999H20C18.8954 26.9999 18 26.1044 18 24.9999V20.9998C18 19.8953 17.1046 18.9998 16 18.9998C14.8954 18.9998 14 19.8953 14 20.9998V24.9999C14 26.1044 13.1046 26.9999 12 26.9999H8C6.89543 26.9999 6 26.1044 6 24.9999V14.8906C6 14.3236 6.24064 13.7833 6.66207 13.404L8 14.8906V24.9999H12V20.9998C12 18.7907 13.7909 16.9998 16 16.9998C18.2091 16.9998 20 18.7907 20 20.9998V24.9999H24V14.8906Z" fill="#7C9094"/>
</svg>
